<svg style="object-fit:cover" id="my-svg" version="1" baseProfile="full" width="100%" height="100%" viewBox="0 0 1920 961" xmlns="http://www.w3.org/2000/svg"><rect width="1920" height="961" fill="#ffffff"/><defs><linearGradient id="linear-gradient" x1="1" x2="0" y1="1" y2="0"><stop offset="0%" stop-color="#eceff480"/><stop offset="100%" stop-color="#347ae480"/></linearGradient></defs><path transform="scale(1, 1)" d="M 0,961 V 0,384 C 350,426.5 700,469 1020,469 C 1340,469 1630,426.5 1920,384 C 1920,384 1920,961 1920,961 Z" stroke="none" stroke-width="0" fill="url(#linear-gradient)" class="transition-all duration-300 ease-in-out delay-150" style="transform-origin: center center;"/><defs><linearGradient id="linear-gradient" x1="1" x2="0" y1="1" y2="0"><stop offset="0%" stop-color="#eceff490"/><stop offset="100%" stop-color="#347ae490"/></linearGradient></defs><path transform="scale(1, 1)" d="M 0,961 V 0,576 C 407.5,602 815,628 1135,628 C 1455,628 1687.5,602 1920,576 C 1920,576 1920,961 1920,961 Z" stroke="none" stroke-width="0" fill="url(#linear-gradient)" class="transition-all duration-300 ease-in-out delay-150" style="transform-origin: center center;"/><defs><linearGradient id="linear-gradient" x1="1" x2="0" y1="1" y2="0"><stop offset="0%" stop-color="#eceff4ff"/><stop offset="100%" stop-color="#347ae4ff"/></linearGradient></defs><path transform="scale(1, 1)" d="M 0,961 V 0,864 C 377,843.5 754,823 1074,823 C 1394,823 1657,843.5 1920,864 C 1920,864 1920,961 1920,961 Z" stroke="none" stroke-width="0" fill="url(#linear-gradient)" class="transition-all duration-300 ease-in-out delay-150" style="transform-origin: center center;"/></svg>