<svg id="visual" viewBox="0 0 1920 1080" width="1920" height="1080" xmlns="http://www.w3.org/2000/svg" xmlns:xlink="http://www.w3.org/1999/xlink" version="1.1"><rect x="0" y="0" width="1920" height="1080" fill="#ffffff"></rect><path d="M0 317L53.3 322.7C106.7 328.3 213.3 339.7 320 342.8C426.7 346 533.3 341 640 324.7C746.7 308.3 853.3 280.7 960 270.7C1066.7 260.7 1173.3 268.3 1280 294.5C1386.7 320.7 1493.3 365.3 1600 389.3C1706.7 413.3 1813.3 416.7 1866.7 418.3L1920 420L1920 0L1866.7 0C1813.3 0 1706.7 0 1600 0C1493.3 0 1386.7 0 1280 0C1173.3 0 1066.7 0 960 0C853.3 0 746.7 0 640 0C533.3 0 426.7 0 320 0C213.3 0 106.7 0 53.3 0L0 0Z" fill="#ECEFF4" stroke-linecap="round" stroke-linejoin="miter"></path></svg>